<?xml version="1.0" encoding="UTF-8" standalone="no"?>
<!-- Created with Inkscape (http://www.inkscape.org/) -->

<svg
   xmlns:dc="http://purl.org/dc/elements/1.1/"
   xmlns:cc="http://creativecommons.org/ns#"
   xmlns:rdf="http://www.w3.org/1999/02/22-rdf-syntax-ns#"
   xmlns:svg="http://www.w3.org/2000/svg"
   xmlns="http://www.w3.org/2000/svg"
   xmlns:sodipodi="http://sodipodi.sourceforge.net/DTD/sodipodi-0.dtd"
   xmlns:inkscape="http://www.inkscape.org/namespaces/inkscape"
   width="206.1412mm"
   height="206.06288mm"
   viewBox="0 0 206.1412 206.06288"
   version="1.1"
   id="svg920"
   inkscape:version="0.92.3 (2405546, 2018-03-11)"
   sodipodi:docname="nea-onnim.svg">
  <defs
     id="defs914" />
  <sodipodi:namedview
     id="base"
     pagecolor="#ffffff"
     bordercolor="#666666"
     borderopacity="1.0"
     inkscape:pageopacity="0.0"
     inkscape:pageshadow="2"
     inkscape:zoom="0.49497475"
     inkscape:cx="219.02105"
     inkscape:cy="497.43765"
     inkscape:document-units="mm"
     inkscape:current-layer="layer1"
     showgrid="false"
     inkscape:window-width="1366"
     inkscape:window-height="717"
     inkscape:window-x="0"
     inkscape:window-y="25"
     inkscape:window-maximized="1" />
  <metadata
     id="metadata917">
    <rdf:RDF>
      <cc:Work
         rdf:about="">
        <dc:format>image/svg+xml</dc:format>
        <dc:type
           rdf:resource="http://purl.org/dc/dcmitype/StillImage" />
        <dc:title></dc:title>
      </cc:Work>
    </rdf:RDF>
  </metadata>
  <g
     inkscape:label="Capa 1"
     inkscape:groupmode="layer"
     id="layer1"
     transform="translate(-22.150274,-10.313056)">
    <path
       style="fill:#808080;stroke-width:1.05699217"
       d="m 22.178027,213.73356 v -2.64248 H 55.473278 88.76853 V 197.36526 183.63943 L 55.737527,183.36018 22.70652,183.08093 v -2.64248 -2.64249 l 33.031007,-0.27924 33.031003,-0.27925 V 163.51162 149.78578 H 55.4594 22.150274 L 22.428401,113.5838 22.706528,77.381822 55.737535,77.102576 88.768542,76.82333 V 63.097508 49.371644 H 55.473286 22.178035 V 46.729197 44.086711 H 55.473286 88.768542 V 30.360847 16.635024 L 55.737535,16.355779 22.706528,16.076533 v -2.642487 -2.642487 h 35.409237 35.409234 l 0.279294,33.031007 0.279318,33.031007 h 13.725849 13.72583 V 45.230259 c 0,-17.39281 0.28871,-32.375678 0.64158,-33.295271 0.82987,-2.1625759 4.22891,-2.1625759 5.0588,0 0.35287,0.919593 0.64158,15.902461 0.64158,33.295271 v 31.623314 h 13.72583 13.72585 l 0.27928,-33.031007 0.27933,-33.031007 34.75479,-0.278846 c 36.44519,-0.292429 38.74033,-0.03596 36.53276,4.089331 -1.01615,1.898711 -2.74851,2.002978 -33.27301,2.002978 H 161.701 V 30.345906 44.08683 h 32.65366 c 33.39482,0 34.50106,0.132232 33.16455,3.963691 -0.35515,1.018587 -7.94707,1.321243 -33.13954,1.321243 H 161.701 v 13.740925 13.740884 h 32.02686 c 23.50045,0 32.36452,0.33757 33.29522,1.26839 0.93322,0.933215 1.2684,10.127908 1.2684,34.794287 0,18.43924 -0.28883,34.27826 -0.64159,35.19786 -0.56588,1.47464 -4.49441,1.67192 -33.29523,1.67192 H 161.701 v 13.74089 13.74091 h 32.02686 c 33.48058,0 35.61903,0.28085 33.41999,4.38992 -0.98076,1.83247 -3.0169,1.95204 -33.24577,1.95204 h -32.2011 v 13.74041 13.74088 h 32.65368 c 26.32583,0 32.75903,0.27445 33.19744,1.41711 1.43078,3.72852 -0.3128,3.90218 -36.32666,3.61809 l -35.33791,-0.27884 -0.27932,-33.031 -0.2793,-33.03102 h -13.71078 -13.71078 l -0.27928,33.03102 -0.27933,33.031 h -2.64248 -2.64248 l -0.27928,-33.031 -0.2793,-33.03102 H 107.77936 94.053524 v 33.29527 33.29524 H 58.115793 22.178062 Z M 54.944781,113.84783 V 83.195045 H 41.203885 27.462984 v 30.652785 30.65274 h 13.740901 13.740896 z m 33.823749,0 V 83.195045 H 75.027636 61.286734 v 30.652785 30.65274 H 75.027636 88.76853 Z m 66.59051,16.91186 V 117.01881 H 124.70626 94.053488 v 13.74088 13.74088 h 30.652772 30.65278 z m 32.76677,-16.91186 V 83.195045 h -13.21244 -13.21239 v 30.652785 30.65274 h 13.21239 13.21244 z m 33.82371,0 V 83.195045 h -13.74088 -13.74088 v 30.652785 30.65274 h 13.74088 13.74088 z M 155.35904,96.935929 V 83.195045 H 124.70626 94.053488 v 13.740884 13.740921 h 30.652772 30.65278 z"
       id="path935"
       inkscape:connector-curvature="0" />
  </g>
</svg>
